<?xml version="1.0" standalone="no"?>
<!DOCTYPE svg PUBLIC "-//W3C//DTD SVG 20010904//EN"
 "http://www.w3.org/TR/2001/REC-SVG-20010904/DTD/svg10.dtd">
<svg version="1.0" xmlns="http://www.w3.org/2000/svg"
 width="1280.000000pt" height="640.000000pt" viewBox="0 0 1280.000000 640.000000"
 preserveAspectRatio="xMidYMid meet">
<g transform="translate(0.000000,640.000000) scale(0.100000,-0.100000)"
fill="#000000" stroke="none">
<path d="M2996 6150 c-166 -19 -339 -81 -413 -149 -40 -36 -58 -114 -57 -241
2 -158 67 -312 191 -458 l46 -53 4 -488 c4 -346 2 -491 -6 -495 -6 -4 -169 -2
-363 5 -261 9 -508 9 -948 2 -546 -10 -601 -12 -670 -31 -159 -43 -287 -119
-462 -276 -59 -53 -109 -96 -112 -96 -22 0 9 783 39 995 18 121 9 186 -28 209
-55 33 -99 -142 -128 -505 -8 -95 -10 -273 -6 -527 l6 -384 -25 -37 c-28 -43
-64 -136 -64 -166 0 -11 16 -94 35 -184 48 -223 51 -285 26 -543 -35 -365 -27
-1005 20 -1473 6 -60 13 -112 15 -114 10 -11 55 22 70 51 38 74 42 447 10 873
-9 110 -20 281 -25 380 -10 199 -1 479 16 496 8 8 35 -7 94 -53 161 -123 360
-234 581 -324 321 -132 610 -215 1303 -374 149 -35 274 -66 279 -71 6 -5 -14
-33 -47 -68 -53 -56 -57 -63 -57 -108 0 -46 3 -52 55 -103 30 -30 55 -60 55
-66 0 -7 -13 -38 -30 -69 -24 -45 -30 -70 -30 -117 0 -58 -2 -64 -55 -132 -59
-78 -115 -190 -136 -276 -19 -77 -17 -250 5 -329 89 -329 382 -577 706 -598
223 -15 423 68 592 245 169 177 240 383 216 623 -10 100 -15 114 -63 174 -50
61 -65 99 -65 159 0 80 39 128 150 184 186 93 373 105 1207 77 456 -16 574
-17 773 -7 129 7 237 15 241 20 4 4 3 29 -3 56 -9 41 -23 62 -100 142 -56 59
-88 101 -86 112 2 13 25 21 98 34 52 9 273 49 490 88 961 173 1978 378 3447
696 342 73 628 131 635 128 14 -6 94 -111 103 -136 3 -8 21 -20 41 -27 19 -7
72 -41 117 -76 46 -34 105 -74 132 -88 59 -29 166 -57 218 -57 79 0 142 49
135 106 -4 38 -54 61 -185 85 -202 36 -328 91 -372 163 -42 67 -28 77 154 114
55 12 208 39 340 62 443 75 959 188 1069 234 30 13 36 20 36 46 0 17 -11 53
-25 80 -45 88 -41 91 145 109 215 21 316 48 402 107 44 31 53 50 30 63 -37 20
-184 43 -361 56 -224 17 -280 24 -305 37 -18 10 -18 19 -12 142 4 72 18 289
32 481 27 365 37 862 21 998 l-9 67 -46 24 c-182 92 -437 100 -677 20 -232
-76 -521 -258 -704 -444 -85 -87 -116 -142 -167 -300 -79 -245 -83 -252 -369
-612 -71 -89 -164 -197 -205 -240 -91 -92 -115 -100 -235 -74 -213 46 -274 56
-455 80 -535 71 -896 99 -1452 112 l-287 7 -44 -46 c-54 -55 -142 -102 -234
-123 -87 -21 -311 -14 -394 11 -63 19 -67 25 -109 160 -12 39 -29 80 -36 93
l-14 22 -594 0 c-508 0 -595 2 -606 15 -9 11 -11 116 -7 442 3 235 6 429 6
429 1 1 63 36 139 79 75 43 170 100 209 128 102 69 202 178 247 267 51 102 49
124 -18 169 -95 66 -241 97 -811 175 -464 64 -506 69 -880 96 -350 26 -465 37
-635 61 -351 49 -605 66 -754 49z m2429 -1445 c0 -347 -6 -450 -29 -458 -7 -3
-88 -1 -180 5 -113 7 -216 7 -319 0 -99 -7 -155 -7 -162 -1 -13 13 -18 268 -8
433 l8 129 245 82 c135 44 281 97 325 117 131 59 120 89 120 -307z m-1865 181
c74 -14 176 -30 225 -37 107 -14 115 -16 115 -28 0 -21 -332 -261 -361 -261
-22 0 -82 51 -231 198 -81 80 -144 150 -141 155 10 17 249 0 393 -27z m680
-68 c-1 -30 -76 -192 -175 -378 l-107 -200 -57 0 c-39 0 -68 7 -96 23 -43 24
-111 107 -122 146 -7 29 -3 33 232 229 83 69 167 140 188 159 31 28 45 33 87
33 33 0 50 -4 50 -12z m100 -18 c25 -46 31 -130 24 -333 l-7 -207 -41 -11
c-41 -11 -205 -7 -238 6 -10 4 -18 15 -18 24 0 10 42 101 94 202 52 101 108
219 126 262 18 42 36 77 41 77 5 0 13 -9 19 -20z m-340 -14 c0 -38 -339 -306
-387 -306 -24 0 -13 18 47 74 58 53 317 245 333 246 4 0 7 -6 7 -14z m-600
-182 c53 -46 76 -114 37 -114 -22 0 -97 100 -97 131 0 17 28 9 60 -17z m-168
-64 c10 -19 30 -61 44 -93 32 -71 26 -91 -38 -137 l-43 -31 -17 21 c-15 18
-18 42 -18 135 0 62 3 121 6 130 11 27 47 13 66 -25z m107 -26 c26 -33 36 -63
24 -75 -17 -17 -40 1 -58 44 -10 23 -20 45 -23 50 -11 20 39 4 57 -19z m209
-91 c4 -27 -32 -65 -53 -57 -15 6 -21 64 -8 78 4 4 19 6 33 4 17 -2 26 -10 28
-25z m6877 -13 c3 -11 3 -25 -1 -32 -4 -6 -10 -118 -13 -248 -5 -185 -9 -241
-20 -254 -13 -15 -26 -17 -95 -11 -191 15 -306 37 -306 58 0 7 24 40 53 73 29
33 109 135 177 225 68 90 132 174 143 187 25 27 54 29 62 2z m-6995 -45 c15
-18 6 -45 -14 -45 -16 0 -31 34 -21 50 9 14 21 12 35 -5z m235 -29 c28 -27 36
-41 33 -63 -2 -22 -9 -29 -32 -31 -85 -10 -147 57 -99 110 24 27 57 22 98 -16z
m-302 -47 c19 -31 1 -49 -48 -49 -56 0 -71 23 -35 52 27 22 68 20 83 -3z"/>
</g>
</svg>
